<?xml version="1.0" encoding="utf-8"?>
<!-- Generator: Adobe Illustrator 17.1.0, SVG Export Plug-In . SVG Version: 6.00 Build 0)  -->
<!DOCTYPE svg PUBLIC "-//W3C//DTD SVG 1.1//EN" "http://www.w3.org/Graphics/SVG/1.1/DTD/svg11.dtd">
<svg version="1.1" id="Layer_1" xmlns="http://www.w3.org/2000/svg" xmlns:xlink="http://www.w3.org/1999/xlink" x="0px" y="0px"
	 viewBox="0 0 260 280" enable-background="new 0 0 260 280" xml:space="preserve">
<g>
	<path fill="#FFFFFF" d="M203.3,268.2c1.7-0.6,2.3,0,1.8,1.6C203.4,270.3,202.8,269.8,203.3,268.2z"/>
	<path fill="#FFFFFF" d="M81.2,270.1"/>
	<path fill="#FFFFFF" d="M125.1,270.2c2.7-1.3,3,2,2.1,3.8C124.7,274.8,123.8,271.9,125.1,270.2z"/>
	<path fill="#FFFFFF" d="M203.1,271.4c1.3-1.4,3.6,0.7,2.2,2.1C204.1,275,201.6,272.8,203.1,271.4z"/>
</g>
<g>
	<path fill="#273532" d="M64.6,42.4c22.8-31.7,69.6-42.3,103.7-23.2c33.1,16.8,50.9,57.6,40.7,93.3c-7.4-7.4-14.8-14.7-22.2-22.2
		c-3.7-3.1-3.5-8.3-4.9-12.6c-4.9-20.5-23.3-36.8-44.2-39.6c-19.2-3.1-39.7,5.5-51,21.2C75.2,74.8,72.8,96.5,81.1,114
		c5.5,12.3,16.5,20.8,25.6,30.2c9.2-9.2,18.3-18.5,27.6-27.5c-6.2-7.3-15.3-12.6-18.9-21.7c-3.8-12.1,11.8-22.6,21.6-14.7
		c16.3,15.2,31.6,31.6,47.6,47.1c12,11.3,21.3,25.9,25,42.1c6.8,28.1-2.3,59.4-23.7,78.9c-22.8,21.8-58.6,28.1-87.5,15.6
		c-22.1-9.2-39.6-28.5-46.5-51.4c-4.8-14.6-4.1-30.2-1.3-45.1c8.6,7.9,17.1,15.9,24.8,24.8c2.5,6.1,2.9,12.9,5.9,18.8
		c9,20.3,31.5,33.4,53.6,31.2c16.3-1.3,31.7-10.7,40.5-24.5c9.6-14.7,11.4-34.2,4.4-50.3c-5.2-12.3-15.5-21.2-25-30.1
		c-5.9,2.6-9.6,8.5-14.4,12.7c-4.2,4.8-10.3,8.6-12.9,14.5c5.2,6.5,12.7,11.2,16.8,18.6c4.5,9.3-4.6,20.7-14.5,19.4
		c-5.8-0.8-9.5-5.6-13.5-9.3c-15.9-16.3-32.5-32-48.2-48.6C43.1,116.9,41.7,71.8,64.6,42.4z"/>
</g>
</svg>
