<svg xmlns="http://www.w3.org/2000/svg" viewBox="0 0 500 500"><g id="freepik--Rain--inject-2"><path d="M147.57,176.05a52.63,52.63,0,0,1,3.65-6.51,55.32,55.32,0,0,1,4.09-6.24,53.39,53.39,0,0,1-3.65,6.51A54.21,54.21,0,0,1,147.57,176.05Z" style="fill:#263238"></path><path d="M178.74,203a52.63,52.63,0,0,1,3.65-6.51,53.74,53.74,0,0,1,4.09-6.24,53.39,53.39,0,0,1-3.65,6.51A54.21,54.21,0,0,1,178.74,203Z" style="fill:#263238"></path><path d="M146.08,223.59a51.81,51.81,0,0,1,3.65-6.51,52.69,52.69,0,0,1,4.09-6.24,54.26,54.26,0,0,1-3.65,6.51A55.32,55.32,0,0,1,146.08,223.59Z" style="fill:#263238"></path><path d="M102.28,307.91a54.26,54.26,0,0,1,3.65-6.51,55.32,55.32,0,0,1,4.09-6.24,53.39,53.39,0,0,1-3.65,6.51A54.21,54.21,0,0,1,102.28,307.91Z" style="fill:#263238"></path><path d="M246.13,445.36a54.26,54.26,0,0,1,3.65-6.51,53.49,53.49,0,0,1,4.09-6.23,55.16,55.16,0,0,1-3.65,6.51A53.49,53.49,0,0,1,246.13,445.36Z" style="fill:#263238"></path><path d="M329.16,169.36a54.26,54.26,0,0,1,3.65-6.51,55.32,55.32,0,0,1,4.09-6.24,51.81,51.81,0,0,1-3.65,6.51A52.69,52.69,0,0,1,329.16,169.36Z" style="fill:#263238"></path><path d="M379.84,171.64a54.26,54.26,0,0,1,3.65-6.51,53,53,0,0,1,4.1-6.24,53.39,53.39,0,0,1-3.65,6.51A53,53,0,0,1,379.84,171.64Z" style="fill:#263238"></path><path d="M336.7,219a56,56,0,0,1,3.65-6.51,53,53,0,0,1,4.1-6.24,53.39,53.39,0,0,1-3.65,6.51A52,52,0,0,1,336.7,219Z" style="fill:#263238"></path><path d="M357,277.1a54.26,54.26,0,0,1,3.65-6.51,53,53,0,0,1,4.1-6.24,53.39,53.39,0,0,1-3.65,6.51A52,52,0,0,1,357,277.1Z" style="fill:#263238"></path><path d="M360.14,344.26a54.26,54.26,0,0,1,3.65-6.51,55.32,55.32,0,0,1,4.09-6.24,53.39,53.39,0,0,1-3.65,6.51A54.21,54.21,0,0,1,360.14,344.26Z" style="fill:#263238"></path><path d="M57.91,433.83a54.26,54.26,0,0,1,3.65-6.51,53,53,0,0,1,4.1-6.24A53.39,53.39,0,0,1,62,427.59,53,53,0,0,1,57.91,433.83Z" style="fill:#263238"></path><path d="M97.7,260.22a53.39,53.39,0,0,1,3.65-6.51,54.21,54.21,0,0,1,4.09-6.24,54.26,54.26,0,0,1-3.65,6.51A55.32,55.32,0,0,1,97.7,260.22Z" style="fill:#263238"></path><path d="M152.36,273.41A55.08,55.08,0,0,1,156,266.9a51,51,0,0,1,4.1-6.24,55.16,55.16,0,0,1-3.65,6.51A53,53,0,0,1,152.36,273.41Z" style="fill:#263238"></path><path d="M94.69,368.32a54.26,54.26,0,0,1,3.65-6.51,53,53,0,0,1,4.1-6.24,55.08,55.08,0,0,1-3.65,6.51A53.44,53.44,0,0,1,94.69,368.32Z" style="fill:#263238"></path><path d="M255,393.5a54.26,54.26,0,0,1,3.65-6.51,53,53,0,0,1,4.1-6.24,53.39,53.39,0,0,1-3.65,6.51A52,52,0,0,1,255,393.5Z" style="fill:#263238"></path><path d="M289,423.3a54.26,54.26,0,0,1,3.65-6.51,55.32,55.32,0,0,1,4.09-6.24,53.39,53.39,0,0,1-3.65,6.51A54.21,54.21,0,0,1,289,423.3Z" style="fill:#263238"></path><path d="M281.51,254.65a53.39,53.39,0,0,1,3.65-6.51,52,52,0,0,1,4.1-6.24,54.26,54.26,0,0,1-3.65,6.51A53,53,0,0,1,281.51,254.65Z" style="fill:#263238"></path></g><g id="freepik--Cloud--inject-2"><path d="M377.58,92.26a25.38,25.38,0,0,0-22.75-16.48A28.93,28.93,0,0,0,313.1,44.35a44.27,44.27,0,0,0-81.17-3.07h0c-3.51-.93-5,.5-8.59,1.15a26.39,26.39,0,0,0-20.82,21.33c-8.28-2.47-17.6-2.13-25.16,2.07S164.42,78.4,164.87,87s7.44,16.79,16.06,17.52c-8.21,13.93-3.5,33.94,10,42.74s33.75,5,43.14-8.15c5.28,12.71,19.14,21.27,32.87,20.38s26.35-11.1,30.15-24.33c4.65,10.3,17.36,16.18,28.22,13.05s18.49-14.87,16.95-26.06a24.74,24.74,0,0,0,35.27-29.92Z" style="fill:#455a64"></path><path d="M271.94,65.42c-.06,0-.79-1-2.5-2.66a22.88,22.88,0,0,0-8.56-4.89,23.12,23.12,0,0,0-6.74-1,20.11,20.11,0,0,0-7.65,1.42,22.27,22.27,0,0,0-12.23,12.47,21.49,21.49,0,0,0-1.51,8.79l0,.39-.37-.14a20.24,20.24,0,0,0-14.4.09A19.42,19.42,0,0,0,209,87.1a20.67,20.67,0,0,0-3.08,7.16,16.73,16.73,0,0,0-.35,2.08,6.26,6.26,0,0,1-.11.73,4,4,0,0,1,0-.73,15.44,15.44,0,0,1,.27-2.11,20.15,20.15,0,0,1,3-7.31,20.71,20.71,0,0,1,3.65-4.17,19.28,19.28,0,0,1,5.51-3.33,20.63,20.63,0,0,1,14.75-.15l-.35.26a21.83,21.83,0,0,1,1.54-9,22.62,22.62,0,0,1,12.53-12.73,20.47,20.47,0,0,1,7.84-1.4A23.31,23.31,0,0,1,261,57.52a22.58,22.58,0,0,1,8.59,5.09,19.24,19.24,0,0,1,1.81,2l.42.57A1.08,1.08,0,0,1,271.94,65.42Z" style="fill:#263238"></path></g><g id="freepik--Character--inject-2"><path d="M369.15,404.7,389.35,427s29.49-13,33.62-9.26l-41.9,40.72L348.17,425Z" style="fill:#86C8BC"></path><g style="opacity:0.30000000000000004"><path d="M369.15,404.7,389.35,427s29.49-13,33.62-9.26l-41.9,40.72L348.17,425Z"></path></g><path d="M374.63,437.81a2.38,2.38,0,0,0,.71,3.1,2.29,2.29,0,0,0,3.08-.68,2.51,2.51,0,0,0-.77-3.28,2.39,2.39,0,0,0-3.13,1.06" style="fill:#e0e0e0"></path><path d="M381.07,458.49,377.88,455l41.37-37.73s2.66-1,3.72.52Z" style="fill:#263238"></path><path d="M389.82,426.16c.19.21-.74,1.3-1.11,2.94s-.07,3-.33,3.12-1.11-1.38-.63-3.35S389.68,425.93,389.82,426.16Z" style="fill:#263238"></path><path d="M396,423.71c.24.15-.31,1.36-.16,2.9s.83,2.65.62,2.84-1.47-.84-1.61-2.76S395.79,423.52,396,423.71Z" style="fill:#263238"></path><path d="M403.59,426.54c-.14.23-1.42-.52-2-2.15s-.05-3,.21-2.92.24,1.26.72,2.59S403.77,426.32,403.59,426.54Z" style="fill:#263238"></path><path d="M384.65,421.58c.1.27-1.12.9-2.2,2.1s-1.62,2.45-1.9,2.37-.12-1.64,1.17-3S384.6,421.32,384.65,421.58Z" style="fill:#263238"></path><path d="M364.26,409.71l20.2,22.34s29.49-13,33.62-9.27l-41.9,40.72L343.28,430Z" style="fill:#86C8BC"></path><path d="M369.74,442.82a2.39,2.39,0,0,0,.71,3.11,2.3,2.3,0,0,0,3.08-.69,2.51,2.51,0,0,0-.77-3.28,2.39,2.39,0,0,0-3.13,1.07" style="fill:#e0e0e0"></path><path d="M376.18,463.5,373,460l41.36-37.74s2.66-1,3.72.52Z" style="fill:#263238"></path><path d="M384.93,431.17c.19.21-.74,1.3-1.11,2.94s-.06,3-.33,3.12-1.11-1.38-.63-3.35S384.79,430.94,384.93,431.17Z" style="fill:#263238"></path><path d="M391.09,428.72c.24.15-.3,1.36-.16,2.9s.84,2.65.62,2.84-1.46-.84-1.61-2.76S390.9,428.53,391.09,428.72Z" style="fill:#263238"></path><path d="M398.7,431.55c-.14.23-1.42-.52-2-2.15s0-3,.21-2.92.24,1.26.72,2.59S398.89,431.34,398.7,431.55Z" style="fill:#263238"></path><path d="M379.76,426.59c.1.27-1.11.9-2.19,2.11s-1.63,2.44-1.91,2.37-.12-1.65,1.17-3.05S379.71,426.33,379.76,426.59Z" style="fill:#263238"></path><path d="M321.39,218.18a7.62,7.62,0,0,0-1.26-1.21c-1.34-1.37-1-3.8-2.36-5.19-1-1-2.54-1.16-3.89-1.58s-2.79-1.57-2.47-2.95a13.34,13.34,0,0,0,6.09-1.05c1.84-1,3.21-3.19,2.51-5.15-.54-1.54-2.1-2.43-3.54-3.19-1.6-.86-3.76-1.65-5.06-.38a4.72,4.72,0,0,0-6.88.26l-3.8-2.79c1.84-.54,3.88-.34,5.64-1.11s3-3.28,1.58-4.58c-.52-.47-1.27-.66-1.7-1.21s-.43-1-.86-1.24a1.77,1.77,0,0,0-1.07-.17l-11.79.55,5.45-4c1.68-1.23,3.56-3.18,2.69-5.06s-3.76-1.63-5.07-.1a3.21,3.21,0,0,0-4.87.57,3.26,3.26,0,0,0-5.82,2.34,9.21,9.21,0,0,0-4.76-1.17c1.11-1.81-.9-4.54-3-4A4.93,4.93,0,0,0,278,173c-.13-1-1.14-1.89-2.06-1.53a3.31,3.31,0,0,0-3-5.51c-.14-.85-.27-1.69-.41-2.53a4.34,4.34,0,0,0-4.72-.25c-1.37,1-1.49,3.44,0,4.16-1-.61-1.72,1.13-1.61,2.3.15,1.63.3,3.25.44,4.88a3.66,3.66,0,0,0-3.7-2.65,2.84,2.84,0,0,0-3.55-2.05c.16-1.86-2.78-3-3.9-1.49.13-.81-.75-1.38-1.5-1.72a5.3,5.3,0,0,0-3.38-.68c-1.14.28-2,1.76-1.26,2.67-.58-1-2.25-.69-2.84.29a4.06,4.06,0,0,0-.06,3.33,9.61,9.61,0,0,1,.77,3.34,4.8,4.8,0,0,0-2.49-2.28c-1.81-1-3.71-2-5.76-2,.11-.87-.85-1.47-1.68-1.76a13.93,13.93,0,0,0-8.11-.27c-1.26.33-2.66,1.12-2.7,2.41a3.4,3.4,0,0,0,.54,1.67q1.73,3.3,3.47,6.6a17.32,17.32,0,0,0-10.59.9c-1.47,0-2.89-.76-4.35-.55s-2.6,2.33-1.34,3.07a2.71,2.71,0,0,0-2.25,2.3,2.58,2.58,0,0,0,.29,1.47,3.43,3.43,0,0,0,.21,1,5,5,0,0,0,1,1.64,3.32,3.32,0,0,0,1.78,2.56,13.64,13.64,0,0,0-4.41,1.55,5.67,5.67,0,0,0-2.94,5c0,.11,0,.22.05.33a2.83,2.83,0,0,0,.16,2.14,2.34,2.34,0,0,0-1,1.21,6.19,6.19,0,0,0-6.7,8.65c.73,1.62,3.16,2.83,4.18,1.37a4.83,4.83,0,0,0,1.81,4.15,4.67,4.67,0,0,0-1.16,6.78c-3.33.52-5,5.3-2.78,7.81a3.81,3.81,0,1,0,4.94,5.8,8.09,8.09,0,0,0,.65,4.53c.78,1.33,2.73,2.1,3.92,1.11a5.24,5.24,0,0,0,5.37,6.05,3.38,3.38,0,0,0,5.5,3.92l7.57,4.36a30.55,30.55,0,0,0,5.19,2.57,15.51,15.51,0,0,0,7.31.72,5.23,5.23,0,0,1,2.36,0,5.37,5.37,0,0,1,2.09,1.71,14.15,14.15,0,0,0,13.19,4.07,7.51,7.51,0,0,1,2.25-.32,6.39,6.39,0,0,1,2.4,1,25.63,25.63,0,0,0,5.94,2.44c1.78.48,3.8.73,5.35-.26s2-3.67.39-4.58a3.94,3.94,0,0,1,2.53-2.37,2.38,2.38,0,0,1,2.85,1.52c.28,1.16-1,2.47-2.1,2,1,2.18,4.63,2.08,5.89,0s.22-5-1.84-6.2a11,11,0,0,0,2.8-4.49,3.88,3.88,0,0,0,4.25,3.2A6.74,6.74,0,0,0,293.5,263a4,4,0,0,0,5.05.16c1.37-1.22,1.2-3.86-.48-4.6,2.15-1.12,2.08-4.83-.11-5.86a5.39,5.39,0,0,0,.06-6.58,2.84,2.84,0,0,0,4.26.7c.07,2.08,2.62,3.08,4.7,3.08,1.63,0,3.39-.33,4.1-2.35a4.28,4.28,0,0,0-.08-2.93c-.85-2.22-2.89-3.52-4.83-4.73a28,28,0,0,1,2.1-8.88,5.61,5.61,0,0,0,3,.82,3.86,3.86,0,0,0,.59.12c2.41.24,4.27-2.48,4.08-4.9s-1.74-4.49-3.23-6.4c1.38.93,2.05,2.6,3.16,3.83s3.33,1.89,4.33.56a3.46,3.46,0,0,0,.54-1.41c.23-1,.46-2,.68-3A3.25,3.25,0,0,0,321.39,218.18Z" style="fill:#263238"></path><path d="M249.1,197.26,282,203.63c9.88,3.43,10.7,18,6.85,27.68-4.26,10.81-9.9,23.83-14.82,31.08C264.11,277,251.1,273.3,251.1,273.3s-1.08,2.29-3.83,8l-1.87,3.11-33-15.06,29.07-68.78A6.12,6.12,0,0,1,249.1,197.26Z" style="fill:#aa7d6d"></path><path d="M251.1,273.3a44.32,44.32,0,0,1-18.44-15.53s.17,13.4,16.62,19.33Z" style="fill:#896255"></path><path d="M234.64,217a2.9,2.9,0,0,0-.69,3.36,2,2,0,0,0,2.91.52c.25,1.25,2.27,1.06,2.63-.24.62.88,2.28.27,2.52-.92.8.85,2.15-.46,3.18-1.28a18.56,18.56,0,0,1,1.79-1.13,12.29,12.29,0,0,0,4.46-5.14c2-.85,3.39-2.94,4.64-4.9.79-1.23,1.58-2.45,2.36-3.68l1.17-.55a2.33,2.33,0,0,0,.43,2.7,4.89,4.89,0,0,0,2.38,1.1l2.55.67,1.25,1.13a6.5,6.5,0,0,0-1.4,4,4,4,0,0,0,.32,2.76,1.23,1.23,0,0,0,2.11-.43,1.35,1.35,0,0,0,2,.61,4.52,4.52,0,0,0,1.69-2.15,11.42,11.42,0,0,0,.86-6.55c.74,1.91,1.47,3.83,2.21,5.75a2.17,2.17,0,0,0,.7,1.08,1.19,1.19,0,0,0,.57,1.74,3.15,3.15,0,0,0,2-.29c1.49-.56,3.38-1.82,3.07-3.41.5.13,1.11-.53,1-1.1,1,1.91,1.94,3.81,2.9,5.72-.33-.49-1.18,0-1.36.62a2.7,2.7,0,0,0,.3,1.83,4,4,0,0,0-1.59,1.92c-.46-1.14-2.37-.37-2.68,1a2.89,2.89,0,0,0,1.51,3.07,2,2,0,0,0,2.7-.35c.91.7,2.55-.21,2.74-1.53.49.84,1.77-.16,2.29-1.13a15.85,15.85,0,0,0,1.77-5.73c-.15.24,0,.6.28.54a.44.44,0,0,0,.23-.64c-.16,2.52-.31,5.05-.46,7.57a16.41,16.41,0,0,1-1.12,6c-.35.76-.77,1.83-.17,2.21a1.08,1.08,0,0,0,.56.11,10.5,10.5,0,0,0,6.48-2.82,8,8,0,0,0,1.7-1.91c.93-1.55,1-3.44,1.67-5.12a16.79,16.79,0,0,0,.9-2.21,7.26,7.26,0,0,0-.31-3.59c-1.1-4.07-2.28-8.3-5-11-1.69-1.69-3.87-2.71-5.57-4.37a39.76,39.76,0,0,1-2.84-3.45c-3.89-4.76-9.28-7.73-14.87-9.86a28.39,28.39,0,0,0-9.82-2.18,34.62,34.62,0,0,0-11.36,2.38,52.23,52.23,0,0,0-16,8.42,25.62,25.62,0,0,0-8.56,11.83c-1.47,4.75-.72,10.23,2.55,12.93l2.27-1" style="fill:#263238"></path><path d="M236.6,221.67c-.17-.2-7.4-7-11.51,1.81s5.57,11.11,5.71,10.87S236.6,221.67,236.6,221.67Z" style="fill:#aa7d6d"></path><path d="M229.67,229.76s-.21,0-.52,0a1.66,1.66,0,0,1-1.16-.51c-.77-.77-.86-2.62-.16-4.22a5.46,5.46,0,0,1,1.45-2,1.94,1.94,0,0,1,1.7-.64.85.85,0,0,1,.71.84c0,.3-.13.45-.09.49s.25-.06.35-.46a1,1,0,0,0-.09-.71,1.29,1.29,0,0,0-.74-.62,2.38,2.38,0,0,0-2.24.62,5.69,5.69,0,0,0-1.67,2.2c-.78,1.8-.64,3.88.46,4.84a1.78,1.78,0,0,0,1.51.42C229.55,230,229.69,229.79,229.67,229.76Z" style="fill:#896255"></path><path d="M288.39,231s.07.15.28.36a3.33,3.33,0,0,0,1.06.69,4.64,4.64,0,0,0,4-.34,7.48,7.48,0,0,0,2.83-3,5.81,5.81,0,0,0,.66-1.56,15,15,0,0,0-.87,1.43,7.87,7.87,0,0,1-2.79,2.79,4.62,4.62,0,0,1-3.79.42A6.53,6.53,0,0,1,288.39,231Z" style="fill:#455a64"></path><path d="M308.84,227.41a1.63,1.63,0,0,0,0-1.32,2.09,2.09,0,0,0-1.08-1.1,6.34,6.34,0,0,0-2.08-.45l-.26,0,.15-.22A1.88,1.88,0,0,0,305,222a5.45,5.45,0,0,0-3-.89l-1.45-.13,1.42-.28a1.54,1.54,0,0,0,.86-2.05,3.46,3.46,0,0,0-2.17-1.75l-.13,0-.8-.3.85-.12a1.67,1.67,0,0,0,1-2.45,2.5,2.5,0,0,0-2.63-1l-1.11.25,1-.62a3.75,3.75,0,0,0,1.64-3.45,3.51,3.51,0,0,0-1.61-2.59,4.06,4.06,0,0,0-2-.65c-.49,0-.75,0-.76,0s.06,0,.19-.07a3.12,3.12,0,0,1,.57-.07,4,4,0,0,1,2.1.57,3.74,3.74,0,0,1,1.82,2.77A4.1,4.1,0,0,1,299,213l-.15-.37a2.91,2.91,0,0,1,3.09,1.13,2.12,2.12,0,0,1,.16,1.84,1.85,1.85,0,0,1-1.43,1.26l0-.42.13,0a3.85,3.85,0,0,1,2.42,2,2.26,2.26,0,0,1,0,1.58,1.63,1.63,0,0,1-1.15,1l0-.41a5.76,5.76,0,0,1,3.2,1,2.22,2.22,0,0,1,.61,2.77l-.11-.24a6.12,6.12,0,0,1,2.16.54A2.26,2.26,0,0,1,309,226a1.54,1.54,0,0,1,0,1.06A.89.89,0,0,1,308.84,227.41Z" style="fill:#455a64"></path><path d="M307.39,202a1.36,1.36,0,0,1-.61-.06,7.11,7.11,0,0,1-1.57-.66,5.13,5.13,0,0,0-2.36-.72,1.54,1.54,0,0,0-1.23.59,1.11,1.11,0,0,0-.15,1.35l-.37.06c.16-.54-.31-1.16-.71-1.77a7.37,7.37,0,0,0-1.47-1.68,2.69,2.69,0,0,0-2-.61,1.75,1.75,0,0,0-1.5,1.07l-.18.52-.21-.5a4.88,4.88,0,0,0-2.07-2.3,5.46,5.46,0,0,0-2.36-.73,6.94,6.94,0,0,0-2.21.27,1.78,1.78,0,0,1,.55-.27,4.64,4.64,0,0,1,1.68-.26,5.54,5.54,0,0,1,2.51.69,5.18,5.18,0,0,1,2.28,2.44H295a2.18,2.18,0,0,1,1.84-1.37,3.13,3.13,0,0,1,2.34.69,7.85,7.85,0,0,1,1.55,1.79,9.17,9.17,0,0,1,.6,1,1.62,1.62,0,0,1,.16,1.17l-.13.4-.23-.34a1.51,1.51,0,0,1,.18-1.83,1.93,1.93,0,0,1,1.51-.7,5.13,5.13,0,0,1,2.5.85,8.91,8.91,0,0,0,1.49.75A5,5,0,0,1,307.39,202Z" style="fill:#455a64"></path><path d="M291.44,185.1a4.46,4.46,0,0,0-1.1-.35,2.75,2.75,0,0,0-1.29.15,2.46,2.46,0,0,0-1.27,1l-.12.2-.16-.16a1.45,1.45,0,0,0-1.84.12,4.38,4.38,0,0,0-1.11,2.14l-.25.83-.18-.86,0-.14a1.85,1.85,0,0,0-1.09-1.21,2.06,2.06,0,0,0-1.56,0,3.32,3.32,0,0,0-1.91,1.95,6.29,6.29,0,0,0-.37,1.92,3.37,3.37,0,0,1-.05.73,1.83,1.83,0,0,1-.12-.73,5.43,5.43,0,0,1,.25-2,3.57,3.57,0,0,1,2.07-2.23,2.44,2.44,0,0,1,3.21,1.55l0,.18-.42,0a4.69,4.69,0,0,1,1.27-2.34,1.82,1.82,0,0,1,2.35-.06l-.28,0a2.63,2.63,0,0,1,1.48-1.12,2.82,2.82,0,0,1,1.42-.08,2.26,2.26,0,0,1,.84.34C291.38,185,291.45,185.09,291.44,185.1Z" style="fill:#455a64"></path><path d="M221.35,199.75a1.5,1.5,0,0,1-.08-.35,7.2,7.2,0,0,1-.08-1,3.15,3.15,0,0,1,.38-1.6,2.2,2.2,0,0,1,.73-.76,1.61,1.61,0,0,1,1.19-.25l-.19.17a2,2,0,0,1,3.33-1.89l-.32.19a1.66,1.66,0,0,1,.9-1.73,2.46,2.46,0,0,1,2.07,0,8.46,8.46,0,0,0,.88.42.85.85,0,0,0,.78-.21,3.42,3.42,0,0,1,.92-.61,1.88,1.88,0,0,1,1.17-.07,10.75,10.75,0,0,1,2.14,1,2.55,2.55,0,0,0,1.94.32c.29-.11.57-.33.9-.5a2.23,2.23,0,0,1,1.1-.23,2.28,2.28,0,0,1,1.8,1l-.35.13a1.75,1.75,0,0,1,1.09-1.72,2.47,2.47,0,0,1,1.83,0,7.55,7.55,0,0,1,2.43,1.56,8.85,8.85,0,0,1,1.26,1.36,2.59,2.59,0,0,1,.35.55,23,23,0,0,0-1.76-1.74,7.59,7.59,0,0,0-2.38-1.43,2.11,2.11,0,0,0-1.58,0,1.39,1.39,0,0,0-.86,1.35l.12.82-.47-.69a1.91,1.91,0,0,0-1.5-.79,1.76,1.76,0,0,0-.89.2,9.67,9.67,0,0,1-.94.52,2.29,2.29,0,0,1-1.19.07,4.88,4.88,0,0,1-1.09-.4,11.16,11.16,0,0,0-2-.92,1.51,1.51,0,0,0-.92.05,3.22,3.22,0,0,0-.83.55,1.25,1.25,0,0,1-1.14.28,7.59,7.59,0,0,1-.94-.45,2,2,0,0,0-1.71,0,1.22,1.22,0,0,0-.7,1.28l.11.55-.43-.36a1.73,1.73,0,0,0-2-.11,1.76,1.76,0,0,0-.75,1.65l0,.22-.22,0a1.64,1.64,0,0,0-1.64.84,3.06,3.06,0,0,0-.42,1.47C221.33,199.26,221.4,199.75,221.35,199.75Z" style="fill:#455a64"></path><path d="M210.51,224.15s-.14-.08-.33-.31a3,3,0,0,1-.56-1.14,3.11,3.11,0,0,1,.14-2,3.29,3.29,0,0,1,1.86-1.82l-.11.2a5.89,5.89,0,0,1-.09-2.46,2.46,2.46,0,0,1,.69-1.22,1.78,1.78,0,0,1,1.41-.53l-.21.33a2.58,2.58,0,0,1,0-2.54,3,3,0,0,1,1-1.1,2.34,2.34,0,0,1,1.41-.32c.46,0,.72-.08.91-.46a3.55,3.55,0,0,1,.82-1,4.47,4.47,0,0,1,2.23-.88l2-.35a7.35,7.35,0,0,1,3,0,4.22,4.22,0,0,1,.76.29c.16.09.24.15.23.16s-.35-.16-1-.28a7.83,7.83,0,0,0-2.87.12l-2,.4a4,4,0,0,0-2,.83,2.93,2.93,0,0,0-.72.93,1.24,1.24,0,0,1-.54.55,1.81,1.81,0,0,1-.74.13,2.12,2.12,0,0,0-2.05,1.19,2.14,2.14,0,0,0,0,2.11l.24.37-.45,0a1.73,1.73,0,0,0-1.66,1.42,5.92,5.92,0,0,0,.06,2.3l0,.15-.14,0a3,3,0,0,0-1.72,1.6,3,3,0,0,0-.2,1.82A4.17,4.17,0,0,0,210.51,224.15Z" style="fill:#455a64"></path><path d="M227.81,219.78a1.79,1.79,0,0,1-.49-.37,5.88,5.88,0,0,1-1.74-4,2.37,2.37,0,0,1,.46-1.65,1.17,1.17,0,0,1,.93-.39.94.94,0,0,1,.89.63l-.38,0a3,3,0,0,1,.45-1.65,1.45,1.45,0,0,1,.83-.52,1.17,1.17,0,0,1,1,.31c.24.18.47.4.64.42s.28-.15.41-.45a2.69,2.69,0,0,1,1.47-1.36,2.89,2.89,0,0,1,3.05.52l-.36.11a2.49,2.49,0,0,1,1.45-2,1.52,1.52,0,0,1,1.24.17,1.13,1.13,0,0,1,.57,1.07l-.37-.09a5.9,5.9,0,0,1,2.06-2.56,6.19,6.19,0,0,1,2.31-1,5.39,5.39,0,0,1,1.62-.1,1.63,1.63,0,0,1,.56.11,8.59,8.59,0,0,0-2.13.21,6.26,6.26,0,0,0-2.18,1.07,5.71,5.71,0,0,0-1.88,2.45l-.59,1.48.22-1.57c.08-.55-.72-1-1.3-.81a2.1,2.1,0,0,0-1.16,1.68l-.07.39-.29-.28a2.46,2.46,0,0,0-2.59-.42,2.24,2.24,0,0,0-1.23,1.13,1.92,1.92,0,0,1-.26.45.72.72,0,0,1-.59.25,1.86,1.86,0,0,1-.86-.52.72.72,0,0,0-.63-.22,1,1,0,0,0-.59.36,2.64,2.64,0,0,0-.38,1.42l-.1,1.14-.29-1.1c-.11-.43-.89-.47-1.17-.1a2,2,0,0,0-.4,1.4,5.77,5.77,0,0,0,.57,2.5A8.3,8.3,0,0,0,227.81,219.78Z" style="fill:#455a64"></path><path d="M259.3,204.86s-.44-.32-.95-1a3.79,3.79,0,0,1-.62-1.43,2.44,2.44,0,0,1,.44-1.91,1.61,1.61,0,0,1,.36-.33l0,.31a2.11,2.11,0,0,1-.35-1.77,1.94,1.94,0,0,1,.87-1.17c.73-.42,1.28-.24,1.25-.2a3.63,3.63,0,0,0-1.09.45,1.68,1.68,0,0,0-.65,1,1.75,1.75,0,0,0,.32,1.41l.13.17-.18.15a1.27,1.27,0,0,0-.27.25,2.13,2.13,0,0,0-.38,1.57,3.82,3.82,0,0,0,.49,1.32A6.16,6.16,0,0,1,259.3,204.86Z" style="fill:#455a64"></path><path d="M270.54,205a2.57,2.57,0,0,0,1-1.32,1.79,1.79,0,0,0-.34-1.68,2,2,0,0,0-2-.61l-.36.11.1-.36a3.8,3.8,0,0,0,.11-1.39,1.67,1.67,0,0,0-.65-1.17c-.59-.39-1.58-.15-1.66.46l-.41-.1a3.36,3.36,0,0,0-.14-2.49,3.19,3.19,0,0,0-1.39-1.46,5.12,5.12,0,0,0-1.8-.5,1.11,1.11,0,0,1,.52-.07,3.32,3.32,0,0,1,1.41.33,3.38,3.38,0,0,1,1.58,1.54,3.63,3.63,0,0,1,.22,2.79l-.41-.11a1.25,1.25,0,0,1,.94-1,1.75,1.75,0,0,1,1.37.19,2.1,2.1,0,0,1,.85,1.5,3.9,3.9,0,0,1-.14,1.54L269,201a2.31,2.31,0,0,1,2.42.79,2.06,2.06,0,0,1,.32,2,2.14,2.14,0,0,1-.79,1.05A.91.91,0,0,1,270.54,205Z" style="fill:#455a64"></path><path d="M276.82,192.31s.25-.12.75-.27a4.35,4.35,0,0,1,2.18-.06,4,4,0,0,1,2.63,1.88,4.26,4.26,0,0,1,.08,4l-.16.3.34-.06a3.68,3.68,0,0,1,2.7.61,3.38,3.38,0,0,1,1.49,2.53,3.67,3.67,0,0,1-.91,2.8l-.26.28H286a2.28,2.28,0,0,1,2.14,1.86,2.31,2.31,0,0,1-1.16,2.34l-.45.24.51,0a3.76,3.76,0,0,1,2.58,1.38,4.51,4.51,0,0,1,1,2.09,4.41,4.41,0,0,1-.15,2,1.86,1.86,0,0,0,.22-.5,3.77,3.77,0,0,0,.1-1.55,4.54,4.54,0,0,0-1-2.21,4,4,0,0,0-2.74-1.52l0,.28a2.54,2.54,0,0,0-1.1-4.8l.12.29a4.07,4.07,0,0,0,1-3.07,3.74,3.74,0,0,0-1.64-2.78,4,4,0,0,0-3-.65l.17.24a4.51,4.51,0,0,0-.14-4.35,4.17,4.17,0,0,0-2.82-1.94,4.45,4.45,0,0,0-2.26.16A2.82,2.82,0,0,0,276.82,192.31Z" style="fill:#455a64"></path><path d="M296.63,228.68c3.24-7,2.68-15.43-.77-22.32a34.69,34.69,0,0,0-16.56-15.48,52.22,52.22,0,0,0-22.49-4.42c-5.08,0-10.3.7-14.72,3.2s-7.68,6.66-10.64,10.82a34.42,34.42,0,0,0-5,9,13,13,0,0,0,.52,10.09c-2.35-.39-3.49-3.07-3.93-5.41-1.67-9,3.32-17.71,9.57-24.4,5-5.41,11.85-8.06,16.83-9.2,7.21-1.65,15.1-.15,22.07,2.33,7.75,2.76,15.13,5.76,20.27,12.18s12.42,20.32,4.87,33.57" style="fill:#86C8BC"></path><path d="M258.79,235.3a5.18,5.18,0,0,1-3.14,1.29,5.13,5.13,0,0,1-3.36-.45c0-.15,1.5.18,3.3-.07S258.71,235.16,258.79,235.3Z" style="fill:#896255"></path><path d="M274,246.33a7.28,7.28,0,0,1-2.08-5.51,27.8,27.8,0,0,1,.94,2.79C273.4,245.12,274.1,246.24,274,246.33Z" style="fill:#896255"></path><path d="M247.48,233.31a3.13,3.13,0,0,0-1,.66,1.67,1.67,0,0,0-.37,1.1,1.36,1.36,0,0,0,.77,1.19c.82.5,1.63-.1,2.39-.86a5.91,5.91,0,0,0,1.46-3.1A11.08,11.08,0,0,0,247.48,233.31Z" style="fill:#f5f5f5"></path><path d="M278.79,246.58a2.41,2.41,0,0,0-.09.84,1.21,1.21,0,0,0,.43.7,1,1,0,0,0,1,.12c.64-.22.68-.94.61-1.7a4.22,4.22,0,0,0-1-2.2A7.84,7.84,0,0,0,278.79,246.58Z" style="fill:#f5f5f5"></path><path d="M250.28,230.11l-2.12.14a.89.89,0,0,0-.72.28.56.56,0,0,0,.2.74,1.06,1.06,0,0,0,.82.1,4.2,4.2,0,0,0,1.82-1.1" style="fill:#f5f5f5"></path><path d="M256.11,237.42a4.29,4.29,0,0,1-2.64.64,4.24,4.24,0,0,1-2.64-.61,23.82,23.82,0,0,1,2.64.09A25.6,25.6,0,0,1,256.11,237.42Z" style="fill:#896255"></path><path d="M273.38,248.3a8,8,0,0,1-2.08-4.79,10.28,10.28,0,0,1,1.11,2.36A10.41,10.41,0,0,1,273.38,248.3Z" style="fill:#896255"></path><path d="M247.82,248.62c-.13,0-.38-.81,0-1.8s1-1.52,1.12-1.42-.35.72-.63,1.58S248,248.6,247.82,248.62Z" style="fill:#896255"></path><path d="M279.57,241.18a2.24,2.24,0,0,1-2.91,1.12,2.13,2.13,0,0,1-1.22-2.8,2.23,2.23,0,0,1,2.9-1.12A2.14,2.14,0,0,1,279.57,241.18Z" style="fill:#263238"></path><path d="M282.91,236.69c-.37.14-1.37-1.71-3.55-2.72s-4.27-.68-4.38-1.06c-.07-.17.41-.53,1.34-.71a6.16,6.16,0,0,1,3.67.52,5.89,5.89,0,0,1,2.67,2.5C283.09,236,283.09,236.62,282.91,236.69Z" style="fill:#263238"></path><path d="M259.19,232a2.24,2.24,0,0,1-2.91,1.12,2.14,2.14,0,0,1-1.22-2.8,2.22,2.22,0,0,1,2.9-1.12A2.14,2.14,0,0,1,259.19,232Z" style="fill:#263238"></path><path d="M261.36,227.06c-.37.14-1.37-1.71-3.55-2.72s-4.27-.68-4.39-1.05c-.06-.18.42-.53,1.35-.71a6.09,6.09,0,0,1,3.67.52,5.82,5.82,0,0,1,2.67,2.49C261.54,226.41,261.54,227,261.36,227.06Z" style="fill:#263238"></path><path d="M261.68,246.88c.05-.13,1.51.27,3.83,1,.58.2,1.16.34,1.43,0a3.07,3.07,0,0,0,.4-1.82c.11-1.58.22-3.25.34-5,.55-7.09,1.22-12.81,1.51-12.78s.07,5.78-.47,12.87c-.15,1.74-.29,3.4-.43,5a3.52,3.52,0,0,1-.73,2.31,1.51,1.51,0,0,1-1.3.38,3.57,3.57,0,0,1-1-.31A15.8,15.8,0,0,1,261.68,246.88Z" style="fill:#263238"></path><path d="M256.42,246.65a3.68,3.68,0,0,0-5.26,3.86,3.74,3.74,0,0,0,3,3,5.52,5.52,0,0,0,3.34,0l.15-.15a4.18,4.18,0,0,0-1.15-6.72Z" style="fill:#896255"></path><path d="M257.55,254.47c-.39,0-.17-2.6-2.23-4.64s-4.85-2-4.84-2.36c0-.16.66-.45,1.83-.38a6.51,6.51,0,0,1,4.05,1.82,5.61,5.61,0,0,1,1.7,3.88C258.07,253.89,257.72,254.5,257.55,254.47Z" style="fill:#263238"></path><path d="M254,218.55c.4-.57,2.63.37,5.43.79s5.21.29,5.41,1c.09.31-.46.8-1.51,1.16a9.53,9.53,0,0,1-8.26-1.33C254.13,219.45,253.77,218.82,254,218.55Z" style="fill:#263238"></path><path d="M285.07,230c-.62.31-1.87-.9-3.66-1.77s-3.48-1.23-3.59-1.91c0-.32.44-.71,1.32-.86a5.9,5.9,0,0,1,5.84,3C285.38,229.25,285.35,229.86,285.07,230Z" style="fill:#263238"></path><path d="M261.87,287.75s34.56,17.52,35.22,16.36-1.34-23.43-2.22-28.71-5.65-25.47-5.65-25.47l11.67-5.33S312.5,276.08,318,295s4.13,37.19,2.28,39.18-67-23.33-67-23.33Z" style="fill:#aa7d6d"></path><path d="M301,317.31a4.69,4.69,0,0,1-1.74-1.37,10.05,10.05,0,0,1-2.2-4.84,19.43,19.43,0,0,1-.22-5.3,7.22,7.22,0,0,1,.38-2.17,12.22,12.22,0,0,1,0,2.19,25.22,25.22,0,0,0,.36,5.18,10.91,10.91,0,0,0,2,4.71C300.33,316.75,301,317.23,301,317.31Z" style="fill:#896255"></path><path d="M301.08,246.19,303,226.43l-8.6-24.1s-2,.21-1.54,3.78l-3.66-2.7s-1,2.45-.37,3.88a41.14,41.14,0,0,0,4,5.28l-5.71-1.72s-1.39,2.22,1.63,3.48l4,3.52,1.57,7.75s-4,11.8-5.17,15.61.13,8.72.13,8.72Z" style="fill:#aa7d6d"></path><path d="M298.15,223.71a8.21,8.21,0,0,1-.44-2,23,23,0,0,0-1.24-4.64,9.81,9.81,0,0,0-2.74-3.82c-.94-.78-1.68-1-1.64-1.12A3.8,3.8,0,0,1,294,213a9,9,0,0,1,3,3.91,17.62,17.62,0,0,1,1.13,4.79A7.33,7.33,0,0,1,298.15,223.71Z" style="fill:#896255"></path><path d="M297.81,213.1a35.25,35.25,0,0,1-2.84-3.78,35.27,35.27,0,0,1-2.73-3.85,15.54,15.54,0,0,1,3.15,3.55A15.84,15.84,0,0,1,297.81,213.1Z" style="fill:#896255"></path><path d="M261.62,309.39s14.95-9,22.46-6.43,99,115.37,99,115.37l-17.78,17-80.9-68.1-20.76-21.36Z" style="fill:#263238"></path><path d="M118.42,414.6s4,16,12.49,27.28c6.22,8.33,15.56,15.6,29.28,15.74,32.37.34,51.1-26.57,58.26-35.43s45.65-59.28,48.38-59.62,4.43,9.19,16.35,23.5S356,443.94,356,443.94l20.11-18.74-68.64-79.48s-29.78-34.12-40.34-36.07-23.31,8.41-29.75,14.26S118.42,414.6,118.42,414.6Z" style="fill:#263238"></path><path d="M370.24,430.7s-.2-.18-.57-.57L368,428.42l-6.28-6.62-23-24.41-15.9-16.87c-5.82-6-12.19-12.18-18.87-18.75s-13.75-13.4-21.18-20.38c-3.72-3.49-7.52-7-11.5-10.45-1-.85-2-1.7-3-2.52-.52-.4-1-.82-1.58-1.19-.27-.19-.54-.38-.82-.54l-.42-.24a3.33,3.33,0,0,0-.4-.16,8.74,8.74,0,0,0-3.83.39,28.72,28.72,0,0,0-3.77,1.35,60.51,60.51,0,0,0-6.92,3.52l0,0-42.79,39.54-18.58,17.16a157.07,157.07,0,0,1-16.5,14.53,55.42,55.42,0,0,1-16,8.38A39,39,0,0,1,143.17,413a29.63,29.63,0,0,1-8.43-1.58,19.17,19.17,0,0,1-2.08-.83c-.46-.2-.69-.32-.69-.32l.71.27c.47.18,1.15.5,2.09.78a30.16,30.16,0,0,0,8.41,1.49,39.28,39.28,0,0,0,13.38-1.93,55.07,55.07,0,0,0,15.87-8.4,159.76,159.76,0,0,0,16.42-14.54c5.8-5.38,12-11.14,18.55-17.2,13.09-12.13,27.53-25.49,42.76-39.58l0,0h0a61.6,61.6,0,0,1,7-3.56,29.24,29.24,0,0,1,3.84-1.37,9.2,9.2,0,0,1,4.08-.4l.53.2.44.27a7.35,7.35,0,0,1,.85.56c.56.38,1.08.79,1.61,1.2,1,.83,2.06,1.68,3.06,2.54,4,3.45,7.79,7,11.51,10.47,7.43,7,14.48,13.84,21.17,20.41s13,12.81,18.84,18.79,11,11.74,15.85,16.92l22.93,24.52,6.21,6.69,1.61,1.75C370.07,430.49,370.24,430.7,370.24,430.7Z" style="fill:#455a64"></path><path d="M171.24,456.64a3.76,3.76,0,0,1,.09-.55c.1-.4.21-.92.36-1.56.35-1.42.83-3.38,1.42-5.81l0,.17L162,439.34l.22.05a27.81,27.81,0,0,1-9.81.32,59,59,0,0,1-12.1-3,77.33,77.33,0,0,1-9.42-4l.28-.16c0,3-.07,5.52-.09,7.31,0,.82,0,1.48-.05,2a3.75,3.75,0,0,1,0,.69,3.15,3.15,0,0,1-.06-.69c0-.51,0-1.17-.05-2,0-1.79,0-4.27-.08-7.31v-.3l.27.13a82.39,82.39,0,0,0,9.41,3.87,60.23,60.23,0,0,0,12,2.92,28,28,0,0,0,9.64-.29l.12,0,.1.08c4.34,3.8,8.17,7.13,11.08,9.67l.08.07,0,.11c-.66,2.41-1.19,4.36-1.57,5.77-.18.63-.33,1.14-.44,1.54A2,2,0,0,1,171.24,456.64Z" style="fill:#455a64"></path><path d="M376.15,425.2c-.11.09-13.84-15.63-30.66-35.11s-30.38-35.36-30.27-35.45,13.83,15.62,30.66,35.11S376.25,425.11,376.15,425.2Z" style="fill:#455a64"></path><path d="M273.44,293l-21.63-13.26-3.4-2.08-.85.66c-7.69,1.26-16.25-3.56-32.25-15.74,0,0-19.7-2.35-35.78,17.16-11.26,13.67-22.45,44.91-33.7,60.94-4.75,6.77-30.44,33.88-29.88,65.75l1.35,8.35,24.76-9.3a63.27,63.27,0,0,0,15.57-10l29.2-25.59,52-47.15c1,.56,9.12-10.35,12.11-21.49l5.4,2.94Z" style="fill:#86C8BC"></path><path d="M202.79,304l-5-.46c4.47,7.1,9.1,14.39,15.9,19.32,2.66,1.92,5.67,3.52,7.58,6.18,1.33,1.87,2.58,4.49,4.87,4.38,1,0,2.36-1.35,3-2,3.48-3.49,9.31-8.58,9.31-8.58A222.09,222.09,0,0,0,202.79,304Z" style="opacity:0.3"></path><path d="M168,387.13a1.71,1.71,0,0,1-.36.31c-.29.23-.65.5-1.09.82s-1.06.79-1.78,1.24-1.5,1-2.43,1.52a59.85,59.85,0,0,1-6.65,3.38A61.25,61.25,0,0,1,138,399.08a60.31,60.31,0,0,1-7.45.37c-1.06,0-2-.07-2.87-.12a21.48,21.48,0,0,1-2.15-.19l-1.36-.17a1.7,1.7,0,0,1-.46-.09,1.21,1.21,0,0,1,.47,0l1.37.07c.59.05,1.31.09,2.15.1s1.79.08,2.85,0a68.23,68.23,0,0,0,7.4-.47,73,73,0,0,0,8.91-1.71,70.4,70.4,0,0,0,8.58-2.94,65.09,65.09,0,0,0,6.66-3.26c.94-.49,1.74-1,2.46-1.45s1.33-.82,1.82-1.15l1.14-.74C167.8,387.19,167.94,387.11,168,387.13Z" style="fill:#263238"></path><path d="M143.76,392.52c-4.66.12-10,0-13,3.6a1.94,1.94,0,0,0-.52,2.13c.38.62,1.22.7,2,.71a61.64,61.64,0,0,0,34.61-10.49l.7-1A65.93,65.93,0,0,1,143.76,392.52Z" style="opacity:0.3"></path><path d="M252.48,297a18.75,18.75,0,0,1-.33-2.67c-.18-1.65-.52-3.91-1-6.39s-1-4.71-1.36-6.34a13.64,13.64,0,0,1-.46-2.66,14,14,0,0,1,.82,2.57c.43,1.61,1,3.84,1.51,6.33a47.26,47.26,0,0,1,.86,6.46A10.18,10.18,0,0,1,252.48,297Z" style="fill:#263238"></path><path d="M217.76,269.08s-19.34,1.12-23.65,13.74c-1.74,5.1-2.7,11.09.54,16.63,2.73,4.66,15,15.16,15,15.16l37-22.16S225.43,269.88,217.76,269.08Z" style="fill:#86C8BC"></path><path d="M196,301.73s.1.06.26.21l.74.64,2.76,2.54c2.42,2.24,5.86,5.43,10.07,9.35l-.24,0,29.78-17.94,4-2.42,2-1.19.95-.59.47-.3.23-.15.11-.07.05,0h0s0,0,0,0l0,0,0,0a.27.27,0,0,0,0,.26.29.29,0,0,0,.21.11l-.18-.08-12.24-12.63c-1.87-1.9-3.58-3.78-5.26-5.38a28.58,28.58,0,0,0-5.24-3.79,34.76,34.76,0,0,0-8.62-3.44c-1.06-.28-1.88-.45-2.45-.55l-.63-.13a.66.66,0,0,1-.22-.06.92.92,0,0,1,.22,0l.65.08c.57.08,1.41.22,2.47.47a33.33,33.33,0,0,1,8.74,3.33,28.56,28.56,0,0,1,5.34,3.78c1.74,1.63,3.45,3.48,5.33,5.37l12.27,12.58-.17-.08a.28.28,0,0,1,.21.12.24.24,0,0,1,0,.26l0,0,0,0,0,0,0,0-.06.05-.12.08-.24.15-.48.3-1,.6-1.95,1.19-4,2.43-16.23,9.73-7.21,4.3-3.31,2-1.57.93-.77.45-.38.23-.18.11-.1.05,0,0h0s0,.07,0,0l-.21,0-10-9.47-2.69-2.61-.7-.69C196,301.82,196,301.74,196,301.73Z" style="fill:#263238"></path><path d="M189.71,295.48a3.71,3.71,0,0,1-.56-.93,17,17,0,0,1-1.1-2.75,19.91,19.91,0,0,1,3.66-18.54,17.85,17.85,0,0,1,2.07-2.13,4.29,4.29,0,0,1,.87-.65c.07.07-1.14,1-2.65,3a20.74,20.74,0,0,0-3.6,18.2C189.05,294.08,189.8,295.44,189.71,295.48Z" style="fill:#263238"></path><path d="M212.44,313c.48.48,70.37,37,87.47,42.08s28-9.75,28-9.75l-5-13.58s-4.24-1.53-13.31-4.23-14.28-1-14.28-1l-49.64-33.43Z" style="fill:#aa7d6d"></path><path d="M309,347a2.91,2.91,0,0,1-.5,1.37,8.8,8.8,0,0,1-2.33,2.64,8.62,8.62,0,0,1-3.17,1.52,2.92,2.92,0,0,1-1.46.12A11.73,11.73,0,0,0,309,347Z" style="fill:#896255"></path><path d="M319.81,330.07s6.06-2.06,7.54,0,5.24,9.34,5.46,11.73-2.05,2.62-3.07,4.56a42.42,42.42,0,0,0-2.17,5.87L323,346.72l-1.93-5.66Z" style="fill:#aa7d6d"></path><path d="M245.69,293.07a5.51,5.51,0,0,1,.65.38l1.8,1.16c1.61,1.05,3.85,2.53,6.59,4.34l21.63,14.48,11.87,8,5.18,3.52c.8.56,1.6,1.07,2.35,1.58a23.93,23.93,0,0,1,2.09,1.61,26.58,26.58,0,0,1,5.2,5.95c.49.79.84,1.43,1.06,1.87a3.42,3.42,0,0,1,.31.69,5.34,5.34,0,0,1-.4-.64c-.25-.42-.62-1-1.14-1.81a28,28,0,0,0-5.27-5.78,23.29,23.29,0,0,0-2.07-1.56c-.75-.5-1.56-1-2.37-1.55l-5.2-3.48-11.9-8-21.54-14.62-6.5-4.48-1.75-1.24A3,3,0,0,1,245.69,293.07Z" style="fill:#896255"></path><path d="M323.05,331.38a4.76,4.76,0,0,1-1.13-.11c-.73-.11-1.77-.32-3-.64-2.56-.63-6-1.87-9.77-3a32.16,32.16,0,0,0-10-1.52,35.25,35.25,0,0,0-4.17.51,4.29,4.29,0,0,1,1.08-.38,15.46,15.46,0,0,1,3.08-.5,29.52,29.52,0,0,1,10.15,1.39c3.84,1.15,7.21,2.44,9.71,3.15,1.25.37,2.28.63,3,.8A4.59,4.59,0,0,1,323.05,331.38Z" style="fill:#896255"></path><path d="M328.79,343.87c.06,0,0,.44-.31,1.07a8.51,8.51,0,0,1-1.57,2.15,9.83,9.83,0,0,1-3,2.29,21.22,21.22,0,0,1,2.57-2.65A29.81,29.81,0,0,0,328.79,343.87Z" style="fill:#896255"></path><path d="M326.87,329.63a7.75,7.75,0,0,1-1.19-.19,9.55,9.55,0,0,0-2.84.14c-2.22.43-4,1.11-4,.95a9.75,9.75,0,0,1,3.93-1.46,7.3,7.3,0,0,1,3,0C326.51,329.27,326.9,329.58,326.87,329.63Z" style="fill:#896255"></path></g><g id="freepik--Floor--inject-2"><path d="M464.05,459.32c0,.14-95.84.26-214,.26S36,459.46,36,459.32s95.82-.26,214.06-.26S464.05,459.17,464.05,459.32Z" style="fill:#263238"></path></g></svg>